<?xml version="1.0" standalone="no"?>
<!DOCTYPE svg PUBLIC "-//W3C//DTD SVG 20010904//EN"
 "http://www.w3.org/TR/2001/REC-SVG-20010904/DTD/svg10.dtd">
<svg version="1.0" xmlns="http://www.w3.org/2000/svg"
 width="512.000000pt" height="512.000000pt" viewBox="0 0 512.000000 512.000000"
 preserveAspectRatio="xMidYMid meet">
<metadata>
Created by potrace 1.14, written by Peter Selinger 2001-2017
</metadata>
<g transform="translate(0.000000,512.000000) scale(0.100000,-0.100000)"
fill="#000000" stroke="none">
<path d="M2438 4975 c-2 -2 -37 -5 -78 -9 -173 -14 -252 -28 -435 -77 -661
-176 -1221 -637 -1531 -1259 -42 -85 -67 -141 -65 -148 1 -1 -5 -15 -13 -30
-17 -33 -74 -199 -79 -227 -1 -11 -5 -24 -9 -30 -7 -11 -53 -235 -62 -300 -33
-235 -24 -566 19 -781 52 -255 115 -439 226 -654 119 -234 250 -412 443 -605
273 -273 550 -447 919 -579 54 -19 98 -34 100 -34 1 0 27 -6 57 -15 30 -9 66
-18 80 -21 206 -41 210 -42 345 -53 511 -41 1015 74 1439 330 668 402 1098
1080 1172 1847 9 92 10 375 1 450 -12 104 -28 215 -39 260 -5 25 -11 53 -13
62 -2 9 -13 52 -25 95 -87 317 -233 605 -440 868 -84 107 -295 316 -400 397
-273 210 -618 379 -910 444 -107 24 -202 42 -252 48 -27 3 -69 9 -94 12 -44 6
-351 13 -356 9z"/>
</g>
</svg>
